<svg width="120" height="120" xmlns="http://www.w3.org/2000/svg">

 <g>
  <title>background</title>
  <rect fill="none" id="canvas_background" height="122" width="122" y="-1" x="-1"/>
 </g>
 <g>
  <title>Layer 1</title>
  <path stroke="null" id="svg_3" fill="#ffffff" d="m47.945976,16.137223c1.951158,0 3.534306,-1.583148 3.534306,-3.534306l0,-7.068612c0,-1.951158 -1.583148,-3.534306 -3.534306,-3.534306s-3.534306,1.583148 -3.534306,3.534306l0,7.068612c0,1.951158 1.583148,3.534306 3.534306,3.534306zm27.487622,9.314442l4.997729,-4.997729c1.380367,-1.380588 1.380367,-3.617141 0,-4.997729c-1.380588,-1.380588 -3.617141,-1.380588 -4.997729,0l-4.997729,4.997729c-1.380588,1.380588 -1.380588,3.617141 0,4.997729s3.617141,1.380588 4.997729,0zm-69.899293,26.028616l7.068612,0c1.951158,0 3.534306,-1.583148 3.534306,-3.534306s-1.583148,-3.534306 -3.534306,-3.534306l-7.068612,0c-1.951158,0 -3.534306,1.583148 -3.534306,3.534306s1.583148,3.534306 3.534306,3.534306zm74.220423,-3.534306c0,1.951158 1.583148,3.534306 3.534306,3.534306l7.068612,0c1.951158,0 3.534306,-1.583148 3.534306,-3.534306s-1.583148,-3.534306 -3.534306,-3.534306l-7.068612,0c-1.951158,0 -3.534306,1.583148 -3.534306,3.534306zm-59.301014,-22.494311c1.380809,1.380588 3.617362,1.380588 4.997729,0c1.380809,-1.380588 1.380809,-3.617141 0,-4.997729l-4.997729,-4.997729c-1.380588,-1.380588 -3.61692,-1.380588 -4.997729,0c-1.380588,1.380588 -1.380588,3.617141 0,4.997729l4.997729,4.997729zm69.903931,33.097228c-1.17339,0 -2.333084,0.082835 -3.48836,0.248506c-3.704615,-5.052953 -8.642261,-8.909322 -14.238393,-11.376047c-0.285174,-13.391706 -11.224072,-24.215518 -24.684918,-24.215518c-13.640212,0 -24.740141,11.099929 -24.740141,24.740141c0,3.851952 0.957355,7.455176 2.540282,10.699669c-13.170812,0.538319 -23.746118,11.348214 -23.746118,24.643389c0,13.640212 11.099929,24.740141 24.740141,24.740141c3.023599,0 5.982696,-0.552235 8.771484,-1.619817c6.396431,5.577576 14.532845,8.688428 23.037268,8.688428c8.513701,0 16.640617,-3.110852 23.037268,-8.688428c2.788788,1.067581 5.747886,1.619817 8.771484,1.619817c13.640212,0 24.740141,-11.099929 24.740141,-24.740141s-11.099929,-24.740141 -24.740141,-24.740141zm-42.41167,-28.274447c8.794237,0 16.028519,6.442819 17.386134,14.855129c-2.21358,-0.441788 -4.472885,-0.717906 -6.783217,-0.717906c-10.147434,0 -19.549129,4.376354 -26.148341,11.762612c-1.311448,-2.466725 -2.126106,-5.236958 -2.126106,-8.228306c0,-9.760869 7.91066,-17.671529 17.671529,-17.671529zm42.41167,70.686117c-3.782812,0 -7.270951,-1.214918 -10.147434,-3.239854c-5.186152,6.249536 -12.90861,10.308466 -21.661319,10.308466c-8.752929,0 -16.475167,-4.058929 -21.661319,-10.308466c-2.871624,2.024936 -6.364622,3.239854 -10.147434,3.239854c-9.760869,0 -17.671529,-7.91066 -17.671529,-17.671529s7.91066,-17.671529 17.671529,-17.671529c1.711929,0 3.327107,0.322064 4.887282,0.782186c0.621154,0.174948 1.251807,0.313007 1.836072,0.556874c0.966412,-1.891295 2.181329,-3.62178 3.529667,-5.246235c5.163621,-6.212426 12.844109,-10.230048 21.555732,-10.230048c2.236553,0 4.381214,0.322064 6.461153,0.819296c2.333084,0.552014 4.537607,1.389645 6.590155,2.494115c5.144845,2.733565 9.369445,6.967442 12.029231,12.162872c2.075742,-0.855744 4.344545,-1.33906 6.728214,-1.33906c9.760869,0 17.671529,7.91066 17.671529,17.671529s-7.91066,17.671529 -17.671529,17.671529z"/>
 </g>
</svg>