<svg width="120.00000000000001" height="120.00000000000001" xmlns="http://www.w3.org/2000/svg">

 <g>
  <title>background</title>
  <rect fill="none" id="canvas_background" height="122" width="122" y="-1" x="-1"/>
 </g>
 <g>
  <title>Layer 1</title>
  <path stroke="null" id="svg_1" fill="#ffffff" d="m117.28766,50.36051c0,-11.070993 -9.006848,-20.073113 -20.077841,-20.073113c-0.53951,0 -1.074292,0.023418 -1.609073,0.065525c-5.207084,-6.49709 -13.055202,-10.352922 -21.546183,-10.352922c-8.486253,0 -16.338873,3.855832 -21.546183,10.353147c-0.534782,-0.042332 -1.074292,-0.065525 -1.618531,-0.065525c-11.061085,-0.000225 -20.067934,9.001895 -20.067934,20.072888c0,1.158731 0.154918,2.27513 0.337757,3.387025c-0.122043,0.159421 -0.267503,0.304882 -0.384592,0.469032c-1.17742,-0.168878 -2.359569,-0.253318 -3.555904,-0.253318c-13.904322,0 -25.219176,11.314628 -25.219176,25.218951c0,13.904547 11.314853,25.219176 25.219176,25.219176c3.082144,0 6.098537,-0.562928 8.941324,-1.65118c6.520283,5.685573 14.814239,8.856659 23.483331,8.856659c8.678549,0 16.962823,-3.171086 23.483331,-8.856659c2.842787,1.088252 5.85918,1.65118 8.941324,1.65118c13.904322,0 25.219176,-11.314628 25.219176,-25.219176c0,-5.784198 -2.035998,-11.052079 -5.328902,-15.311417c3.283447,-3.579322 5.328902,-8.293731 5.328902,-13.510273zm-25.219176,46.835387c-3.856057,0 -7.411736,-1.238216 -10.343915,-3.302361c-5.286795,6.370319 -13.158555,10.50784 -22.080739,10.50784c-8.922409,0 -16.79417,-4.137521 -22.080739,-10.50784c-2.927226,2.064144 -6.487633,3.302361 -10.343915,3.302361c-9.949866,0 -18.013697,-8.063831 -18.013697,-18.013697s8.063831,-18.013472 18.013697,-18.013472c2.434551,0 4.742556,0.492675 6.853761,1.364988c0.126546,-0.239132 0.281464,-0.450342 0.40801,-0.680242c1.266588,-2.312734 2.828601,-4.433171 4.653388,-6.314251c5.197852,-5.385195 12.42202,-8.781677 20.509495,-8.781677c11.193036,0 20.790959,6.454758 25.566165,15.775945c1.271317,-0.520596 2.627298,-0.858578 4.024935,-1.083524l2.833555,-0.281464c2.777262,0 5.375963,0.684971 7.726075,1.80137c2.547137,1.219527 4.733324,3.01144 6.450255,5.22127c2.364298,3.04454 3.837368,6.834847 3.837368,10.991057c0,9.949866 -8.063831,18.013697 -18.013697,18.013697zm14.762675,-38.363545c-4.160939,-3.030354 -9.23202,-4.869102 -14.762675,-4.869102c-1.196109,0 -2.378258,0.084439 -3.555904,0.253318c-6.726765,-9.16627 -17.342912,-14.664275 -28.868751,-14.664275c-7.683968,0 -14.931553,2.486341 -20.926962,6.830344c1.684055,-5.146063 6.468944,-8.889534 12.173206,-8.889534c1.745077,0 3.391529,0.351717 4.897474,0.975442c3.4199,-6.656511 10.273437,-11.263064 18.267015,-11.263064s14.851843,4.606327 18.257783,11.263064c1.515177,-0.623724 3.171086,-0.975442 4.897249,-0.975442c7.111808,0 12.872363,5.760555 12.872363,12.867634c0.000225,3.260029 -1.252177,6.201215 -3.250797,8.471616z"/>
 </g>
</svg>