<svg width="120.00000000000001" height="120.00000000000001" xmlns="http://www.w3.org/2000/svg">

 <g>
  <title>background</title>
  <rect fill="none" id="canvas_background" height="122" width="122" y="-1" x="-1"/>
 </g>
 <g>
  <title>Layer 1</title>
  <path stroke="null" id="svg_1" fill="#ffffff" d="m88.552507,38.223743c-1.12031,0 -2.227545,0.079088 -3.330561,0.237265c-6.300481,-8.585391 -16.243658,-13.734981 -27.0393,-13.734981c-10.795642,0 -20.734179,5.14959 -27.0393,13.734981c-1.103016,-0.158176 -2.210251,-0.237265 -3.330561,-0.237265c-13.023187,0 -23.621003,10.597816 -23.621003,23.621003s10.597816,23.621003 23.621003,23.621003c2.886824,0 5.712065,-0.527255 8.3747,-1.546543c6.107084,5.325271 13.875441,8.295401 21.995161,8.295401c8.128578,0 15.887866,-2.97013 21.995161,-8.295401c2.662635,1.019288 5.487876,1.546543 8.3747,1.546543c13.023187,0 23.621003,-10.597816 23.621003,-23.621003s-10.597816,-23.621003 -23.621003,-23.621003zm0,40.493149c-3.611694,0 -6.942044,-1.15996 -9.688408,-3.093297c-4.951553,5.966623 -12.32468,9.842155 -20.681454,9.842155c-8.356984,0 -15.729901,-3.875532 -20.681454,-9.842155c-2.741724,1.933337 -6.076714,3.093297 -9.688408,3.093297c-9.319329,0 -16.872145,-7.552816 -16.872145,-16.872145c0,-9.319329 7.552816,-16.872145 16.872145,-16.872145c2.28027,0 4.442014,0.465671 6.419429,1.282916c4.477235,-8.73471 13.466714,-14.780632 23.950432,-14.780632s19.473408,6.045922 23.946003,14.780632c1.981844,-0.817245 4.148017,-1.282916 6.423858,-1.282916c9.319329,0 16.872145,7.552816 16.872145,16.872145c0,9.319329 -7.552816,16.872145 -16.872145,16.872145z"/>
 </g>
</svg>