<svg width="120" height="120" xmlns="http://www.w3.org/2000/svg">

 <g>
  <title>background</title>
  <rect fill="none" id="canvas_background" height="122" width="122" y="-1" x="-1"/>
 </g>
 <g>
  <title>Layer 1</title>
  <path stroke="null" id="svg_3" fill="#ffffff" d="m90.047493,20.164642c-1.127915,0 -2.242666,0.079625 -3.353169,0.238875c-6.343249,-8.643669 -16.35392,-13.828214 -27.222843,-13.828214c-10.868923,0 -20.874923,5.184545 -27.222843,13.828214c-1.110504,-0.15925 -2.225254,-0.238875 -3.353169,-0.238875c-13.111589,0 -23.781343,10.669754 -23.781343,23.781343s10.669754,23.781343 23.781343,23.781343c2.90642,0 5.750838,-0.530834 8.431548,-1.557041c6.148539,5.361419 13.969628,8.35171 22.144465,8.35171c8.183755,0 15.995714,-2.990292 22.144465,-8.35171c2.680709,1.026207 5.525128,1.557041 8.431548,1.557041c13.111589,0 23.781343,-10.669754 23.781343,-23.781343s-10.669754,-23.781343 -23.781343,-23.781343zm0,40.768017c-3.63621,0 -6.989167,-1.167834 -9.754173,-3.114294c-4.985164,6.007337 -12.40834,9.908964 -20.82184,9.908964c-8.413712,0 -15.836676,-3.901627 -20.82184,-9.908964c-2.760334,1.94646 -6.117963,3.114294 -9.754173,3.114294c-9.382589,0 -16.986674,-7.604084 -16.986674,-16.986674s7.604084,-16.986674 16.986674,-16.986674c2.295749,0 4.472167,0.468832 6.463005,1.291624c4.507626,-8.794001 13.558126,-14.880963 24.113008,-14.880963s19.605594,6.086962 24.108549,14.880963c1.995297,-0.822792 4.176174,-1.291624 6.467464,-1.291624c9.382589,0 16.986674,7.604084 16.986674,16.986674s-7.604084,16.986674 -16.986674,16.986674zm-37.158349,47.562686c0,3.755754 3.038916,6.794669 6.794669,6.794669c3.755754,0 6.794669,-3.038916 6.794669,-6.794669s-6.794669,-13.589339 -6.794669,-13.589339s-6.794669,9.833585 -6.794669,13.589339zm26.966344,-6.794669c0,3.755754 3.038916,6.794669 6.794669,6.794669s6.794669,-3.038916 6.794669,-6.794669s-6.794669,-13.589339 -6.794669,-13.589339s-6.794669,9.833585 -6.794669,13.589339zm-54.357356,-13.589339c0,3.755754 3.038916,6.794669 6.794669,6.794669s6.794669,-3.038916 6.794669,-6.794669s-6.794669,-13.589339 -6.794669,-13.589339s-6.794669,9.833585 -6.794669,13.589339z"/>
 </g>
</svg>