<svg width="120.00000000000001" height="120.00000000000001" xmlns="http://www.w3.org/2000/svg">

 <g>
  <title>background</title>
  <rect fill="none" id="canvas_background" height="122" width="122" y="-1" x="-1"/>
 </g>
 <g>
  <title>Layer 1</title>
  <path stroke="null" id="svg_3" fill="#ffffff" d="m61.073841,34.649462c-14.568797,0 -26.424377,11.85558 -26.424377,26.424377s11.85558,26.424377 26.424377,26.424377s26.424377,-11.85558 26.424377,-26.424377s-11.85558,-26.424377 -26.424377,-26.424377zm0,45.298932c-10.42536,0 -18.874555,-8.449195 -18.874555,-18.874555c0,-10.42536 8.449195,-18.874555 18.874555,-18.874555c10.42536,0 18.874555,8.449195 18.874555,18.874555c0,10.42536 -8.449195,18.874555 -18.874555,18.874555zm0,-52.848754c2.083987,0 3.774911,-1.690924 3.774911,-3.774911l0,-7.549822c0,-2.083987 -1.690924,-3.774911 -3.774911,-3.774911s-3.774911,1.690924 -3.774911,3.774911l0,7.549822c0,2.083987 1.690924,3.774911 3.774911,3.774911zm0,67.948398c-2.083987,0 -3.774911,1.690924 -3.774911,3.774911l0,7.549822c0,2.083987 1.690924,3.774911 3.774911,3.774911s3.774911,-1.690924 3.774911,-3.774911l0,-7.549822c0,-2.083987 -1.690924,-3.774911 -3.774911,-3.774911zm29.358898,-57.999856l5.33796,-5.33796c1.474575,-1.474575 1.474575,-3.863385 0,-5.33796s-3.863385,-1.474575 -5.33796,0l-5.33796,5.33796c-1.474575,1.474575 -1.474575,3.863385 0,5.33796s3.863385,1.474575 5.33796,0zm-58.717797,48.05155l-5.33796,5.33796c-1.474575,1.474339 -1.474575,3.86315 0,5.337724s3.863385,1.474575 5.33796,0l5.33796,-5.337724c1.474575,-1.479529 1.474575,-3.863621 0,-5.33796c-1.474339,-1.474811 -3.863385,-1.479765 -5.33796,0zm-4.615301,-24.025893c0,-2.083987 -1.690924,-3.774911 -3.774911,-3.774911l-7.549822,0c-2.083987,0 -3.774911,1.690924 -3.774911,3.774911s1.690924,3.774911 3.774911,3.774911l7.549822,0c2.083987,0 3.774911,-1.690924 3.774911,-3.774911zm79.273131,-3.774911l-7.549822,0c-2.083987,0 -3.774911,1.690924 -3.774911,3.774911s1.690924,3.774911 3.774911,3.774911l7.549822,0c2.083987,0 3.774911,-1.690924 3.774911,-3.774911s-1.690924,-3.774911 -3.774911,-3.774911zm-74.662785,-20.250746c1.474811,1.474575 3.863621,1.474575 5.33796,0c1.474811,-1.474575 1.474811,-3.863385 0,-5.33796l-5.33796,-5.33796c-1.474575,-1.474575 -3.86315,-1.474575 -5.33796,0c-1.474575,1.474575 -1.474575,3.863385 0,5.33796l5.33796,5.33796zm58.727706,48.046359c-1.479529,-1.474575 -3.863621,-1.474575 -5.33796,0c-1.474811,1.474575 -1.479529,3.863385 0,5.33796l5.33796,5.33796c1.474339,1.474575 3.86315,1.474575 5.337724,0s1.474575,-3.863385 0,-5.33796l-5.337724,-5.33796z"/>
 </g>
</svg>