<svg width="120" height="120" xmlns="http://www.w3.org/2000/svg">

 <g>
  <title>background</title>
  <rect fill="none" id="canvas_background" height="122" width="122" y="-1" x="-1"/>
 </g>
 <g>
  <title>Layer 1</title>
  <path stroke="null" id="svg_3" fill="#ffffff" d="m74.951527,101.274686l-4.02748,-2.321618c0.121272,-0.698991 0.214351,-1.412079 0.214351,-2.153359c0,-0.741056 -0.09308,-1.454368 -0.223749,-2.153583l4.036877,-2.326093c1.883294,-1.100173 2.526348,-3.519346 1.44497,-5.393243c-1.090999,-1.897167 -3.505473,-2.545143 -5.397941,-1.454368l-4.069544,2.349363c-1.091223,-0.927663 -2.321394,-1.654847 -3.691856,-2.148884l0,-4.675456c0,-2.18625 -1.776118,-3.95767 -3.95767,-3.95767s-3.952747,1.77142 -3.952747,3.95767l0,4.670758c-1.370686,0.489563 -2.605779,1.22592 -3.696555,2.153583l-4.060147,-2.349363c-1.897167,-1.090776 -4.316563,-0.447498 -5.407339,1.449669c-1.090776,1.883294 -0.433625,4.307166 1.454368,5.398165l4.018306,2.321394c-0.130669,0.703914 -0.214575,1.417225 -0.214575,2.158282s0.083906,1.454368 0.214575,2.153135l-4.018082,2.321618c-1.892692,1.090776 -2.545143,3.524045 -1.454368,5.412038s3.510172,2.531047 5.397941,1.440495l4.064846,-2.335491c1.090552,0.922964 2.326093,1.650148 3.701254,2.139487l0,4.684854c0,2.181328 1.771196,3.94335 3.952747,3.94335s3.95767,-1.762022 3.95767,-3.94335l0,-4.684854c1.370462,-0.489563 2.615177,-1.216746 3.696555,-2.153583l4.064846,2.349363c1.892468,1.090776 4.306942,0.447498 5.397941,-1.440495c1.090552,-1.887769 0.447274,-4.307166 -1.445194,-5.411814zm-15.671818,-0.517531c-2.181551,0 -3.95767,-1.776118 -3.95767,-3.95767s1.776118,-3.948272 3.95767,-3.948272s3.952971,1.766721 3.952971,3.948272s-1.77142,3.95767 -3.952971,3.95767zm48.814395,-10.096667l-2.703558,-0.717786c-0.065111,-0.857629 -0.270289,-1.673418 -0.647977,-2.456539l1.962501,-1.962501c0.922964,-0.922964 0.918265,-2.414698 0,-3.323566c-0.913567,-0.918265 -2.395903,-0.922964 -3.318867,0l-1.966976,1.957803c-0.773947,-0.363592 -1.598909,-0.573245 -2.452064,-0.643278l-0.71801,-2.698859c-0.3354,-1.24919 -1.622179,-1.999867 -2.880543,-1.664244c-1.253889,0.340322 -1.985771,1.626878 -1.659545,2.880767l0.71801,2.661716c-0.354418,0.242544 -0.690041,0.512832 -1.00687,0.820487c-0.307655,0.317052 -0.56877,0.652452 -0.811313,0.997696l-2.661716,-0.71801c-1.253889,-0.3354 -2.549842,0.419753 -2.885465,1.664244c-0.3354,1.258587 0.419753,2.540445 1.659545,2.880767l2.684986,0.722485c0.074732,0.843757 0.289084,1.668719 0.666548,2.452064l-1.971675,1.971675c-0.913567,0.918265 -0.908868,2.400602 0.009397,3.314168c0.913567,0.913567 2.395903,0.922964 3.309693,0.009397l1.97615,-1.976374c0.773947,0.381939 1.603832,0.596514 2.461461,0.661625l0.708389,2.689685c0.345021,1.253889 1.622179,1.999867 2.88099,1.664244c1.24919,-0.335623 2.004119,-1.621956 1.668719,-2.890164l-0.71801,-2.661716c0.335623,-0.237621 0.680644,-0.503435 0.997696,-0.81109c0.307655,-0.312353 0.56877,-0.657374 0.810866,-1.002171l2.666415,0.71801c1.253889,0.335623 2.545143,-0.41483 2.876068,-1.659545c0.335623,-1.249637 -0.405433,-2.53597 -1.654847,-2.88099zm-8.022292,1.496432c-0.922964,0.922964 -2.409999,0.918265 -3.328264,0c-0.908868,-0.908868 -0.918265,-2.400602 0,-3.323566c0.918265,-0.913567 2.409999,-0.913567 3.328264,0c0.909092,0.918265 0.909092,2.414474 0,3.323566zm-71.45957,-13.522934l-2.657018,0.713311c-0.247019,-0.335623 -0.503435,-0.675945 -0.815788,-0.992997c-0.316828,-0.307655 -0.652452,-0.573245 -1.002171,-0.81109l0.713311,-2.671114c0.335623,-1.253889 -0.410355,-2.545143 -1.650148,-2.876068c-1.258587,-0.335623 -2.545143,0.410355 -2.880767,1.659545l-0.727184,2.698859c-0.852931,0.06981 -1.668719,0.279686 -2.447365,0.647977l-1.971675,-1.962501c-0.922964,-0.922964 -2.4053,-0.918265 -3.319091,0c-0.918265,0.918265 -0.918265,2.4053 0,3.323566l1.962501,1.962501c-0.368291,0.783121 -0.582642,1.608307 -0.647977,2.456539l-2.694384,0.717786c-1.258587,0.345021 -2.004566,1.622179 -1.668719,2.880767c0.340322,1.24919 1.626878,1.985771 2.885465,1.659545l2.657018,-0.722709c0.237621,0.358893 0.503435,0.69474 0.825186,1.007317c0.307655,0.307655 0.643278,0.582642 0.992997,0.81109l-0.713311,2.661716c-0.335623,1.258587 0.410355,2.554541 1.659322,2.890164c1.258811,0.335623 2.53597,-0.410132 2.871593,-1.664244l0.727184,-2.684986c0.852931,-0.06981 1.678116,-0.284385 2.461238,-0.657374l1.966976,1.9672c0.91379,0.92274 2.396127,0.904169 3.319091,-0.009397c0.908868,-0.908868 0.922964,-2.395903 0,-3.314168l-1.971675,-1.971899c0.377688,-0.774171 0.601437,-1.608307 0.657374,-2.461461l2.698859,-0.713311c1.244491,-0.340322 1.99047,-1.622179 1.654847,-2.880767c-0.335847,-1.244044 -1.622403,-1.990022 -2.885689,-1.663797zm-6.796595,6.367445c-0.918265,0.918265 -2.4053,0.918265 -3.328264,0c-0.908868,-0.913567 -0.908868,-2.409999 0,-3.318867c0.922964,-0.913567 2.409999,-0.913567 3.328264,0s0.909092,2.4053 0,3.318867zm94.743772,-43.621631c0,-13.816492 -11.24338,-25.059873 -25.059873,-25.059873c-1.188554,0 -2.363236,0.083906 -3.533442,0.251717c-6.684274,-9.108369 -17.233138,-14.571645 -28.686394,-14.571645c-11.453257,0 -21.997198,5.463276 -28.686394,14.571645c-1.170207,-0.167812 -2.344888,-0.251717 -3.533442,-0.251717c-13.816492,0 -25.059873,11.24338 -25.059873,25.059873s11.24338,25.059873 25.059873,25.059873c3.062674,0 6.060014,-0.559372 8.884844,-1.64075c6.479096,5.649659 14.720662,8.800714 23.334993,8.800714c8.623729,0 16.855673,-3.151055 23.334993,-8.800714c2.824829,1.081378 5.822169,1.64075 8.884844,1.64075c13.816492,0 25.059873,-11.24338 25.059873,-25.059873zm-35.338448,14.618185c-5.253176,6.330303 -13.075436,10.441688 -21.941261,10.441688c-8.866049,0 -16.688085,-4.111385 -21.941261,-10.441688c-2.908735,2.051106 -6.446876,3.281725 -10.278575,3.281725c-9.887015,0 -17.899909,-8.012894 -17.899909,-17.899909s8.012894,-17.899909 17.899909,-17.899909c2.419173,0 4.712599,0.494037 6.810468,1.361064c4.749965,-9.266783 14.287036,-15.680992 25.409369,-15.680992s20.659628,6.414209 25.40467,15.680992c2.102568,-0.867027 4.400693,-1.361064 6.815167,-1.361064c9.887015,0 17.899909,8.012894 17.899909,17.899909s-8.012894,17.899909 -17.899909,17.899909c-3.831699,0 -7.364918,-1.230619 -10.278575,-3.281725z"/>
 </g>
</svg>